<svg xmlns="http://www.w3.org/2000/svg" version="1.0"
     width="1064" height="1065"
     viewBox="492.6 491.17 1063.5 1064.52"
     preserveAspectRatio="xMidYMid meet">
<metadata>
Created by potrace 1.16, written by Peter Selinger 2001-2019
</metadata>
<g transform="translate(0.000000,2048.000000) scale(0.100000,-0.100000)" fill="#000000" stroke="none">
<path d="M10045 15559 c-746 -28 -1463 -207 -2120 -529 -244 -120 -390 -203 -580 -330 -563 -376 -996 -788 -1403 -1338 -461 -620 -789 -1379 -928 -2142 -74 -410 -89 -571 -88 -975 1 -575 62 -999 214 -1495 54 -176 64 -227 86 -458 l18 -193 -24 -68 c-31 -89 -25 -137 32 -249 42 -83 46 -88 103 -116 33 -17 102 -45 154 -63 56 -19 99 -41 108 -53 43 -61 150 -169 241 -243 31 -25 31 -27 13 -37 -11 -5 -35 -10 -55 -10 -85 0 -574 -84 -591 -101 -26 -27 137 -80 397 -129 38 -8 398 -50 422 -50 2 0 34 -39 72 -87 255 -323 628 -675 999 -944 124 -89 361 -245 475 -312 226 -132 668 -333 935 -424 611 -209 1354 -317 1964 -284 554 30 978 112 1496 291 275 94 662 273 915 423 203 120 496 319 655 446 116 93 403 353 516 468 206 209 469 536 646 803 213 321 436 786 564 1175 165 501 225 805 274 1389 14 168 2 672 -21 871 -23 204 -79 520 -125 708 -145 588 -394 1161 -712 1637 -228 341 -385 535 -672 828 -437 447 -908 787 -1470 1062 -544 267 -1118 437 -1686 500 -189 21 -496 41 -584 38 -27 -1 -135 -4 -240 -9z m395 -461 l0 -178 -117 0 c-65 0 -155 -3 -199 -6 l-82 -7 -4 179 c-3 98 -4 181 -2 184 1 3 93 5 203 5 l201 0 0 -177z m355 157 c809 -86 1635 -396 2303 -865 52 -36 113 -79 137 -95 l44 -31 -156 -156 c-151 -152 -156 -156 -184 -146 -61 21 -97 3 -201 -101 -143 -143 -142 -146 85 -378 171 -175 227 -223 271 -233 47 -10 81 7 151 79 33 34 63 61 66 61 4 0 11 -15 15 -32 5 -25 141 -459 180 -579 4 -11 -16 -25 -81 -54 -223 -99 -494 -291 -511 -362 -8 -30 3 -88 19 -101 6 -5 27 -13 45 -17 36 -7 40 -16 16 -36 -22 -18 -44 -64 -44 -91 0 -36 34 -83 71 -98 19 -7 36 -15 38 -16 2 -2 -6 -15 -17 -31 -30 -44 -35 -69 -17 -103 18 -35 33 -37 66 -12 43 33 106 51 185 53 l78 2 55 51 c57 52 81 79 77 83 -2 2 -36 -9 -77 -23 -41 -14 -105 -37 -144 -50 -81 -29 -135 -39 -135 -26 0 15 161 167 270 255 l35 28 -35 -7 c-42 -8 -265 -80 -291 -95 -26 -14 -42 -3 -29 20 9 18 166 164 244 228 22 18 38 34 35 37 -7 6 -182 -31 -249 -54 -111 -37 -91 -12 81 105 107 72 290 172 384 210 79 31 153 51 161 42 13 -13 -62 -122 -143 -208 -46 -49 -83 -93 -83 -98 0 -15 58 8 188 73 61 31 112 54 112 52 0 -33 -68 -133 -162 -238 -43 -48 -75 -89 -70 -92 13 -8 150 52 208 90 30 20 57 34 60 31 9 -8 -32 -102 -64 -150 -18 -25 -61 -76 -97 -114 -44 -46 -60 -69 -50 -71 21 -5 106 36 194 92 40 26 75 45 77 43 9 -8 -29 -92 -66 -147 -21 -30 -67 -87 -104 -126 -36 -40 -66 -75 -66 -78 0 -20 61 3 165 64 114 67 135 77 135 65 0 -3 -14 -34 -31 -68 -41 -80 -105 -170 -163 -227 -46 -44 -55 -63 -36 -75 13 -8 91 21 197 74 46 23 85 41 88 41 3 0 5 -11 5 -25 0 -29 -31 -94 -68 -143 l-25 -32 24 -21 c15 -13 31 -18 44 -14 11 3 59 11 106 17 73 10 96 9 153 -5 87 -21 159 -63 225 -129 88 -88 133 -207 143 -378 3 -44 4 -45 43 -51 43 -6 101 -33 153 -72 l33 -25 111 29 c60 16 122 34 136 41 28 14 38 43 28 83 -6 22 -10 23 -183 30 l-176 8 124 37 c68 20 140 41 159 46 29 9 35 14 32 35 -6 51 -29 60 -173 70 -74 4 -143 8 -153 9 -36 0 -9 11 103 39 131 34 161 50 161 90 0 16 -6 34 -14 40 -9 8 -79 15 -185 20 -94 4 -174 10 -178 14 -3 4 2 7 13 7 35 0 297 69 304 80 9 15 0 68 -14 80 -7 5 -60 12 -117 15 -57 3 -133 8 -169 12 l-65 6 125 27 c173 39 180 42 180 84 0 56 -13 60 -214 66 -186 5 -195 10 -66 35 96 19 222 59 230 74 5 10 3 28 -5 47 l-13 31 -163 7 c-221 9 -222 12 -30 55 73 16 139 35 147 42 18 15 18 73 1 88 -8 6 -82 14 -176 17 -89 4 -158 10 -154 14 4 4 62 21 127 38 131 34 163 54 152 95 -3 14 -14 28 -23 32 -10 5 -96 10 -191 13 -95 2 -171 7 -168 9 3 3 76 22 162 43 86 21 160 44 165 52 14 21 11 44 -8 67 -16 19 -33 21 -185 27 -93 4 -168 10 -168 13 0 6 13 10 195 52 74 17 105 29 122 47 l23 24 9 -23 c5 -13 34 -76 66 -139 241 -488 375 -901 469 -1452 33 -190 73 -645 59 -670 -2 -5 -65 -8 -139 -8 -79 0 -133 4 -130 9 4 5 50 24 104 41 135 45 134 44 130 93 -4 51 -14 55 -153 56 l-100 1 0 -92 c0 -83 -4 -100 -32 -160 -17 -37 -29 -69 -26 -71 2 -3 0 -8 -6 -11 -5 -4 -28 18 -50 48 -78 105 -181 167 -385 231 -66 20 -143 52 -171 69 -28 18 -102 86 -165 150 -395 405 -814 650 -1290 755 -205 45 -262 51 -885 103 -368 30 -1243 33 -1595 5 -899 -72 -1288 -171 -1775 -452 -108 -62 -439 -288 -572 -391 -78 -60 -83 -62 -120 -53 -97 22 -288 -3 -360 -47 -80 -50 -124 -119 -144 -228 -10 -54 -16 -66 -32 -66 -10 0 -120 -20 -243 -45 -224 -46 -356 -85 -554 -164 -57 -23 -199 -66 -315 -96 -229 -59 -286 -79 -416 -146 -161 -84 -251 -165 -351 -314 -65 -98 -122 -211 -159 -317 -13 -38 -27 -68 -31 -68 -5 0 -8 3 -8 8 0 4 -7 45 -15 92 -9 47 -20 109 -25 138 -13 78 -48 401 -54 515 -6 86 -4 97 10 97 20 0 310 -87 335 -101 40 -21 44 -13 44 84 0 87 2 96 40 171 28 56 57 95 102 136 80 75 146 101 270 108 l91 4 31 62 c34 65 112 153 174 194 20 13 37 26 37 28 0 2 -18 31 -39 64 -40 62 -68 127 -58 137 3 2 45 -14 94 -37 111 -53 205 -91 211 -85 2 2 -34 51 -81 109 -95 115 -128 165 -145 214 -15 45 -4 43 126 -24 100 -51 192 -79 192 -58 0 5 -23 34 -51 64 -110 121 -139 158 -174 223 -20 38 -35 70 -33 73 3 2 48 -18 100 -46 86 -45 179 -75 192 -62 3 3 -24 36 -60 74 -36 39 -81 94 -100 123 -35 55 -78 154 -71 162 3 2 38 -17 78 -43 83 -54 199 -103 244 -104 29 0 28 2 -46 78 -42 42 -94 101 -117 130 -45 59 -96 155 -90 172 3 10 75 -29 212 -113 33 -21 66 -37 73 -37 29 0 -2 57 -64 120 -65 64 -107 119 -135 175 -38 75 -36 75 108 3 75 -38 139 -67 141 -64 3 2 -19 33 -49 68 -29 35 -70 86 -90 114 -38 52 -82 143 -74 152 3 2 27 -8 53 -24 128 -74 213 -108 230 -90 3 3 -17 26 -44 50 -72 65 -159 174 -182 230 l-21 47 23 -6 c12 -4 63 -30 112 -59 180 -105 210 -99 98 19 -72 76 -170 212 -160 222 3 2 40 -5 84 -17 141 -40 492 -234 588 -326 25 -24 27 -29 13 -32 -10 -2 -46 8 -81 22 -80 32 -217 69 -225 62 -3 -4 5 -14 19 -24 42 -29 267 -243 273 -259 12 -30 20 -32 -223 51 -74 25 -137 44 -139 41 -3 -3 -3 -6 -1 -8 2 -1 64 -56 136 -120 125 -111 162 -152 149 -164 -7 -8 -160 41 -256 81 -51 22 -77 29 -72 20 4 -8 65 -73 135 -144 70 -71 127 -136 127 -144 0 -9 -2 -16 -5 -16 -3 0 -75 23 -160 51 -86 28 -160 49 -165 47 -4 -2 50 -55 122 -118 122 -107 173 -164 163 -181 -5 -8 -152 31 -207 55 -21 9 -44 16 -53 16 -20 0 7 -40 88 -129 58 -63 96 -125 84 -137 -3 -3 -47 8 -98 25 -51 17 -94 29 -96 27 -9 -8 48 -106 88 -152 41 -48 66 -90 58 -99 -3 -2 -35 3 -73 11 -37 9 -69 14 -72 11 -5 -5 20 -120 30 -136 4 -6 22 -3 49 9 40 18 99 31 150 34 19 1 22 7 21 42 0 27 -8 51 -23 70 l-23 29 33 3 c43 4 76 35 89 83 12 43 6 64 -28 102 l-26 27 42 0 c59 0 82 25 82 90 0 37 -5 55 -20 70 -27 27 -26 30 20 30 31 0 43 5 56 26 27 40 24 107 -5 138 -23 24 -23 26 -5 32 50 16 65 26 74 50 16 40 12 68 -13 105 l-23 34 38 19 c43 20 68 59 68 108 0 34 -32 98 -50 98 -5 0 -10 4 -10 10 0 5 13 7 29 4 50 -10 92 51 76 114 -16 65 -210 209 -450 333 -77 40 -141 73 -143 74 -2 2 31 112 72 246 41 134 82 273 92 309 9 36 19 67 21 69 1 2 36 -28 76 -67 76 -73 108 -89 154 -77 26 6 383 344 396 375 4 8 16 31 27 50 42 73 21 119 -106 231 -73 64 -117 80 -168 60 -31 -11 -31 -10 -183 141 -84 84 -153 157 -153 163 1 5 20 23 43 38 23 15 94 64 157 109 493 348 1119 616 1770 758 203 45 701 114 714 99 2 -2 1 -81 -2 -176 l-5 -171 -45 -7 c-65 -10 -115 -61 -131 -133 -16 -76 -14 -225 4 -268 26 -63 32 -64 522 -63 472 0 490 2 527 52 19 26 21 41 19 152 -1 99 -5 132 -21 169 -23 51 -66 83 -125 93 -21 3 -40 11 -42 17 -2 6 -6 85 -9 177 l-6 165 32 -3 c18 -1 101 -10 183 -18z m-173 -492 c14 -13 18 -31 18 -95 l0 -78 -332 -1 c-183 0 -352 -3 -376 -6 -23 -3 -53 -2 -67 1 -24 6 -25 10 -25 79 0 49 5 80 16 95 l15 22 366 0 c327 0 368 -2 385 -17z m-3358 -752 l148 -154 -31 -31 -32 -31 -162 164 -162 163 29 25 c16 13 36 23 45 21 9 -2 83 -72 165 -157z m6161 135 l30 -24 -162 -163 -162 -163 -25 24 c-15 13 -26 30 -26 38 0 19 281 310 300 311 8 1 29 -10 45 -23z m-6587 -277 c24 -27 36 -49 34 -63 -4 -22 -101 -341 -157 -516 -29 -90 -56 -178 -118 -385 l-12 -40 -105 3 c-58 2 -163 7 -235 13 -71 5 -163 9 -204 9 -85 0 -85 -6 -15 110 93 155 277 397 444 585 150 168 304 324 323 325 4 0 24 -19 45 -41z m6983 -86 c223 -227 441 -491 600 -726 55 -81 97 -152 94 -158 -4 -5 -40 -9 -80 -9 -67 0 -354 -14 -478 -24 -57 -5 -67 6 -91 99 -9 33 -43 146 -76 250 -33 105 -88 285 -122 402 l-61 212 34 40 c19 22 39 40 44 40 6 1 67 -56 136 -126z m-6195 9 c80 -58 85 -45 -92 -222 -87 -88 -162 -160 -165 -160 -16 0 -99 84 -99 100 0 20 286 310 305 310 7 0 30 -13 51 -28z m5447 -122 c81 -82 147 -153 147 -158 0 -4 -22 -30 -49 -56 l-49 -49 -29 21 c-37 27 -293 287 -293 298 0 18 85 94 105 94 14 0 71 -51 168 -150z m-5999 -30 l24 -25 -64 -200 c-35 -110 -89 -285 -120 -390 -31 -104 -60 -193 -63 -197 -4 -4 -18 -1 -33 6 -15 8 -29 12 -32 8 -3 -3 -6 -1 -6 5 0 6 -9 13 -21 16 -16 4 -19 9 -11 24 5 10 28 83 51 163 23 80 57 192 75 250 19 58 53 171 77 252 l43 147 28 -17 c16 -9 39 -28 52 -42z m6485 -187 c41 -137 96 -320 124 -408 27 -88 51 -168 54 -177 4 -13 -5 -19 -37 -28 -23 -6 -49 -10 -58 -8 -11 2 -30 49 -64 163 -76 250 -103 339 -149 489 l-43 139 43 38 c24 22 46 39 50 39 4 0 40 -111 80 -247z m-7710 -824 c15 -11 85 -34 159 -52 73 -17 132 -35 132 -38 0 -11 -56 -16 -199 -18 -75 -1 -139 -5 -143 -9 -4 -4 -10 -21 -14 -38 -8 -44 14 -57 151 -87 66 -14 136 -29 155 -33 l35 -8 -35 -6 c-19 -4 -93 -7 -165 -9 -150 -2 -179 -11 -183 -58 -4 -41 9 -48 168 -88 l125 -32 -55 -6 c-46 -5 -226 -17 -267 -17 -20 0 -43 -43 -36 -68 8 -32 39 -45 180 -78 68 -16 123 -32 123 -35 0 -6 -177 -19 -264 -19 -64 0 -96 -20 -96 -60 0 -18 7 -33 18 -39 9 -5 79 -24 154 -42 75 -18 135 -36 132 -41 -3 -4 -74 -8 -157 -8 -165 0 -197 -9 -197 -53 0 -46 19 -56 174 -95 65 -17 119 -32 122 -35 2 -2 -67 -7 -155 -10 -88 -4 -166 -10 -174 -13 -21 -8 -33 -74 -15 -86 15 -10 107 -37 233 -70 l90 -23 -176 -5 c-182 -6 -202 -10 -212 -50 -11 -44 44 -72 248 -126 22 -5 -12 -11 -121 -19 -164 -12 -184 -19 -184 -66 0 -24 6 -30 53 -47 28 -11 95 -31 147 -46 52 -14 111 -30 130 -35 25 -7 -20 -10 -162 -9 -214 2 -228 -1 -228 -52 0 -40 24 -54 154 -91 141 -39 134 -47 -41 -48 -112 -1 -124 -3 -149 -24 -33 -29 -27 -57 19 -81 17 -9 84 -32 147 -50 174 -51 182 -57 65 -49 -170 13 -274 10 -285 -7 -17 -27 -12 -78 10 -90 24 -13 125 -43 199 -60 86 -20 40 -31 -116 -28 l-138 3 3 100 c14 513 139 1095 348 1630 73 189 244 545 260 545 3 0 17 -9 33 -21z m6001 -1174 c36 -3 205 -17 375 -30 171 -14 348 -30 395 -36 223 -29 511 -115 701 -210 291 -145 473 -282 740 -557 146 -151 180 -174 308 -212 117 -34 252 -89 302 -121 77 -49 125 -143 148 -289 36 -230 82 -675 80 -775 l-1 -50 -15 65 c-26 117 -54 204 -89 275 -41 83 -55 99 -113 137 -115 73 -230 1 -331 -207 -100 -206 -163 -465 -205 -840 -21 -189 -43 -316 -60 -341 -10 -16 -32 -24 -92 -33 -101 -16 -269 -45 -463 -82 -85 -16 -265 -49 -400 -74 -135 -25 -405 -77 -600 -115 -420 -82 -685 -130 -711 -130 -16 0 -18 5 -13 28 17 67 16 67 120 86 55 11 401 79 769 151 369 73 744 147 835 164 91 17 188 37 215 44 l50 13 67 129 c109 212 227 511 367 931 136 405 168 732 90 898 -27 58 -38 66 -180 120 -63 24 -130 53 -149 65 -41 25 -66 27 -74 6 -7 -18 29 -42 124 -82 155 -67 204 -96 228 -139 49 -90 48 -291 -4 -537 -32 -151 -154 -522 -267 -807 -85 -215 -216 -502 -234 -513 -10 -6 -356 -82 -403 -89 -30 -4 -30 -3 -6 132 l17 95 -25 68 c-32 83 -34 171 -10 439 11 115 17 290 17 473 1 286 1 292 -26 395 -17 62 -52 156 -88 229 -32 68 -57 127 -54 130 4 3 60 15 125 27 226 42 439 114 524 179 18 14 46 43 61 65 23 34 26 46 21 82 -9 61 -50 143 -88 179 -116 110 -321 245 -477 316 -99 45 -273 105 -391 134 -78 19 -123 23 -250 23 -138 1 -162 -2 -220 -22 -143 -52 -239 -133 -347 -295 -74 -110 -251 -463 -308 -612 -21 -55 -42 -104 -46 -109 -5 -6 -9 -31 -9 -57 0 -37 7 -58 35 -99 78 -116 169 -343 185 -458 44 -339 47 -735 9 -1341 -6 -95 -8 -186 -5 -202 7 -37 -16 -50 -93 -54 -43 -1 -57 -6 -59 -19 -2 -9 -8 -16 -14 -16 -6 0 -7 12 -2 33 14 58 5 616 -11 744 -33 248 -105 449 -210 582 -131 165 -288 207 -462 121 -248 -122 -457 -570 -517 -1110 -14 -128 -19 -191 -31 -367 -9 -130 -16 -184 -25 -178 -4 2 -19 -4 -33 -15 -37 -30 -67 -38 -202 -54 -211 -27 -835 -78 -1115 -91 -63 -3 -149 -7 -190 -10 -252 -15 -570 -16 -680 -1 -88 12 -216 15 -535 16 -420 0 -784 11 -1055 30 -150 11 -203 16 -500 49 -96 11 -249 22 -340 25 -179 6 -260 21 -411 76 -104 37 -179 83 -179 107 0 10 8 43 18 74 l18 57 24 -21 c36 -29 131 -71 280 -122 72 -24 146 -52 166 -61 19 -9 37 -14 39 -12 9 8 -33 199 -66 300 -42 131 -88 182 -291 318 -84 56 -161 110 -171 118 -16 14 -17 34 -15 196 l3 181 33 68 c18 37 38 67 43 67 5 0 21 -8 35 -17 21 -14 31 -14 58 -5 50 18 79 15 163 -20 104 -42 158 -42 238 0 69 36 78 32 89 -40 6 -38 4 -45 -27 -77 -54 -57 -100 -123 -137 -196 -33 -65 -35 -75 -35 -165 0 -85 3 -101 30 -153 42 -84 119 -151 201 -177 191 -59 1066 -122 1634 -119 561 4 722 28 851 131 143 112 152 242 30 405 -59 79 -178 199 -239 242 -31 21 -32 24 -17 41 9 9 54 40 100 69 l84 51 98 -36 c223 -82 239 -85 353 -81 58 3 191 14 295 26 156 18 202 20 259 11 72 -11 155 -42 168 -62 19 -32 402 57 527 122 132 69 287 242 413 462 l48 83 -133 3 c-72 2 -219 -2 -326 -8 -107 -5 -196 -8 -198 -6 -10 10 101 79 232 144 273 136 488 199 899 262 103 16 198 36 211 44 69 45 104 107 110 196 2 28 10 41 41 63 119 86 232 237 369 492 147 273 270 449 355 507 l25 18 -26 -9 c-14 -5 -42 -18 -61 -28 -39 -21 -28 -21 -513 16 -428 32 -653 42 -957 40 -451 -3 -1027 -32 -1362 -70 -96 -10 -121 -6 -60 10 395 104 647 149 939 166 61 3 121 8 135 10 14 2 115 7 225 11 110 3 202 8 205 11 6 6 1014 -5 1100 -12z m-1370 -242 c0 -4 -58 -30 -128 -58 -356 -139 -690 -361 -1046 -692 l-89 -83 -146 1 c-80 0 -154 4 -164 8 -16 6 -8 15 45 61 34 30 94 85 133 121 231 219 601 471 874 596 71 33 84 36 216 42 240 11 305 12 305 4z m-670 -21 c0 -4 -16 -14 -36 -21 -51 -19 -249 -114 -324 -157 -186 -106 -508 -338 -727 -525 l-128 -109 -95 -1 c-52 0 -131 -2 -175 -4 -44 -2 -172 -6 -285 -9 l-205 -6 30 25 c182 152 713 523 971 677 85 51 100 56 200 71 108 17 513 54 649 60 39 2 82 4 98 5 15 1 27 -2 27 -6z m2964 -34 c14 -22 86 -225 100 -280 l6 -28 -92 0 c-124 0 -287 -16 -466 -45 -80 -13 -148 -22 -151 -19 -9 8 39 95 84 154 120 156 273 236 452 239 44 1 55 -3 67 -21z m327 -44 c130 -41 304 -122 338 -157 31 -34 121 -179 116 -187 -2 -4 -62 4 -132 17 -70 13 -182 32 -248 41 l-120 18 -61 152 -62 152 27 0 c15 0 79 -16 142 -36z m-5309 -573 c-130 -102 -203 -155 -216 -157 -30 -4 -15 77 21 115 28 28 59 41 131 55 75 15 94 11 64 -13z m4897 0 c85 -18 155 -37 170 -48 30 -22 67 -92 76 -144 l7 -36 -169 -12 c-319 -22 -576 -32 -585 -23 -24 24 49 186 114 253 l38 39 102 0 c74 0 144 -8 247 -29z m-2544 -281 c453 -11 674 -19 731 -26 22 -2 138 -5 258 -6 l218 0 -7 -26 c-24 -96 -54 -121 -160 -133 -513 -57 -1010 -230 -1290 -448 -81 -63 -70 -59 -185 -76 -278 -42 -561 -109 -785 -187 -135 -47 -380 -169 -560 -278 -66 -40 -135 -81 -153 -92 l-32 -20 -73 26 c-70 25 -247 71 -317 82 -19 3 -51 9 -70 14 -19 4 -57 11 -85 15 -27 3 -61 8 -75 10 -156 24 -345 37 -558 36 -133 0 -261 -3 -285 -5 -23 -3 -87 -11 -142 -17 -143 -15 -297 -44 -394 -74 -47 -14 -88 -25 -91 -25 -4 0 -15 42 -25 93 -25 131 -51 202 -100 277 -38 59 -123 149 -200 213 l-30 25 28 30 c35 37 216 145 299 179 62 25 202 65 368 105 47 11 154 47 239 80 161 62 276 95 521 147 255 54 312 62 470 68 85 3 252 8 370 12 320 12 1669 12 2115 1z m3026 -130 c28 -58 62 -134 76 -169 56 -148 67 -458 32 -900 -23 -296 -21 -410 9 -488 16 -43 18 -60 10 -95 -5 -24 -13 -76 -18 -117 -4 -40 -14 -77 -20 -81 -7 -5 -38 -13 -69 -18 -31 -6 -108 -20 -171 -32 -102 -19 -878 -172 -939 -186 l-24 -5 6 163 c3 90 14 298 23 463 22 414 11 772 -31 983 -25 123 -53 198 -123 334 -36 70 -64 130 -61 133 3 3 177 12 385 20 413 16 610 35 658 64 27 16 67 26 171 44 11 2 23 1 27 -2 4 -4 30 -53 59 -111z m2095 -287 c-30 -353 -102 -745 -192 -1043 -51 -169 -164 -456 -164 -417 0 3 18 84 40 179 72 310 97 559 80 803 -11 157 -37 471 -46 556 l-6 56 103 26 c57 14 122 33 144 40 22 8 44 11 49 7 5 -5 1 -95 -8 -207z m-9529 -317 c79 -58 125 -116 172 -217 54 -118 57 -133 25 -148 -15 -6 -28 -10 -29 -9 -1 2 -10 28 -19 59 -9 33 -35 82 -60 116 -47 62 -147 143 -176 143 -20 0 -54 -81 -70 -169 -10 -56 -9 -63 24 -99 17 -20 18 -24 6 -32 -23 -15 -45 -12 -73 10 -14 11 -33 20 -42 20 -14 0 -16 6 -10 38 21 116 139 332 181 332 6 0 39 -20 71 -44z m4723 -18 c0 -25 -134 -211 -205 -284 -84 -86 -180 -137 -336 -178 -160 -41 -206 -43 -278 -11 -33 15 -61 31 -61 34 0 4 55 13 123 19 138 14 237 39 317 80 41 21 68 45 111 101 52 67 103 150 97 156 -6 6 -270 -16 -423 -35 -206 -26 -567 -99 -720 -145 -137 -42 -214 -71 -333 -127 -54 -25 -95 -38 -114 -36 l-31 3 27 26 c67 67 343 181 577 238 394 97 782 154 1109 164 47 2 97 4 113 5 16 1 27 -3 27 -10z m4171 -201 c108 -73 181 -333 181 -647 0 -270 -30 -449 -97 -587 -91 -184 -207 -178 -309 17 -68 129 -107 333 -107 554 -1 237 38 424 119 571 61 111 136 144 213 92z m-3278 -257 c136 -51 243 -209 307 -454 90 -339 55 -740 -90 -1041 -114 -238 -270 -326 -440 -249 -145 65 -250 259 -305 564 -4 19 -9 114 -12 210 -7 243 20 427 94 625 58 155 153 283 247 332 73 38 124 41 199 13z m-4769 -95 c153 -3 285 -9 293 -12 7 -3 39 -43 70 -89 30 -46 58 -84 62 -84 4 0 45 39 92 86 l84 86 265 -6 c430 -10 561 -17 640 -33 77 -15 116 -30 106 -40 -7 -7 -344 -6 -723 3 l-273 7 -98 -97 c-54 -53 -103 -96 -110 -96 -6 0 -17 10 -23 23 -25 46 -121 166 -137 171 -10 2 -116 7 -237 11 -264 7 -503 23 -523 34 -12 7 -11 11 7 21 26 13 136 27 191 24 19 -1 160 -5 314 -9z m-1165 -499 c14 -8 30 -32 40 -62 16 -47 18 -49 86 -74 97 -36 128 -54 159 -90 37 -44 32 -54 -11 -27 -46 29 -196 97 -213 97 -9 0 -11 -10 -6 -31 3 -17 6 -40 6 -50 0 -29 32 -55 91 -74 155 -51 219 -78 219 -92 0 -27 -60 -9 -253 76 l-48 21 7 -45 c16 -112 -49 -5 -86 140 -23 92 -37 225 -24 225 5 -1 20 -7 33 -14z m8321 -463 c8 -16 29 -53 47 -84 18 -31 33 -58 33 -60 0 -2 -222 -4 -494 -4 -272 0 -493 1 -491 3 4 4 507 104 595 118 19 3 87 16 150 29 147 30 144 30 160 -2z m869 -280 c-13 -21 -76 -118 -141 -217 -232 -348 -424 -578 -744 -887 -587 -568 -1406 -1026 -2215 -1239 -468 -123 -1013 -178 -1509 -152 -441 24 -805 89 -1265 229 -603 182 -1250 542 -1788 993 -93 78 -450 432 -498 494 -21 26 -21 28 -3 23 10 -3 69 -8 129 -12 61 -3 135 -8 165 -10 76 -7 611 -33 805 -40 88 -3 207 -7 265 -10 578 -25 1608 -27 1955 -4 66 4 163 11 215 14 320 20 754 64 1070 110 91 13 287 51 435 85 271 61 315 71 720 154 312 63 551 114 594 125 44 12 441 97 871 186 319 66 482 100 645 135 238 52 272 58 293 59 l24 1 -23 -37z m-7069 -238 c342 -5 487 -12 477 -21 -2 -3 -141 -16 -308 -29 -346 -28 -625 -53 -684 -61 -76 -11 -80 -9 -57 24 11 15 36 43 55 63 34 35 37 36 98 33 35 -2 224 -6 419 -9z"/>
<path d="M14893 10742 c9 -9 30 -47 47 -84 31 -65 31 -66 63 -58 63 15 172 60 183 75 15 21 7 52 -19 70 -16 11 -54 15 -156 15 -128 0 -133 -1 -118 -18z"/>
<path d="M14029 10175 c-42 -7 -85 -17 -96 -23 -19 -11 -52 -97 -41 -108 6 -5 209 23 233 33 8 3 15 13 15 22 0 9 3 33 6 54 8 43 8 43 -117 22z"/>
<path d="M11721 9704 c-46 -7 -87 -16 -92 -21 -11 -11 68 -103 88 -103 17 0 25 8 74 78 17 24 27 47 23 51 -5 4 -47 2 -93 -5z"/>
<path d="M10177 8450 c-27 -5 -68 -11 -91 -14 -24 -4 -92 -15 -152 -26 -60 -11 -152 -27 -204 -35 -196 -32 -620 -116 -747 -148 -126 -33 -190 -61 -242 -106 -29 -25 -25 -26 16 -6 17 8 57 20 89 26 33 5 68 13 78 16 17 5 18 1 13 -26 -7 -31 -6 -32 26 -27 17 3 66 8 107 11 41 3 111 10 155 15 44 5 134 14 200 20 66 6 132 13 148 15 19 3 27 0 27 -10 0 -21 -32 -31 -125 -39 -44 -4 -138 -16 -210 -26 -71 -11 -213 -29 -315 -40 -101 -11 -188 -24 -193 -29 -4 -4 -1 -19 6 -34 12 -24 15 -25 29 -10 20 20 41 8 32 -19 -6 -20 -3 -20 77 -14 168 13 425 36 459 41 83 12 198 16 204 7 3 -6 2 -13 -3 -16 -9 -6 -93 -18 -206 -31 -234 -27 -415 -45 -535 -56 -139 -11 -219 -28 -140 -29 55 -1 63 -10 55 -68 l-7 -51 84 4 c45 3 182 9 303 15 277 14 544 36 640 55 116 22 267 90 331 148 61 55 115 155 133 247 19 93 39 235 34 243 -5 8 -9 8 -76 -3z m-137 -122 c0 -25 -29 -109 -60 -173 -31 -64 -80 -115 -145 -148 -37 -19 -155 -50 -162 -43 -3 3 2 47 11 98 9 51 22 122 28 158 6 36 13 67 15 70 5 5 235 45 281 48 20 2 32 -2 32 -10z"/>
<path d="M5850 8166 c0 -22 33 -70 60 -88 26 -18 40 -39 56 -83 22 -65 59 -141 72 -149 12 -7 394 -47 787 -81 226 -19 488 -28 1227 -41 l346 -6 32 44 c18 23 52 84 77 133 25 50 59 109 75 133 30 44 18 61 -16 23 -10 -11 -41 -30 -69 -43 -52 -23 -54 -23 -527 -26 -499 -4 -933 8 -1185 32 -82 8 -184 18 -225 21 -72 5 -106 8 -230 20 -261 26 -419 63 -445 105 -6 9 -35 15 -35 6z"/>
<path d="M13030 10004 c-124 -20 -138 -28 -154 -83 -8 -25 -11 -49 -7 -53 8 -9 213 21 228 34 6 5 19 30 27 55 15 43 14 64 -2 62 -4 -1 -45 -7 -92 -15z"/>
<path d="M14598 9218 c-3 -7 -6 -47 -7 -88 -4 -146 -31 -343 -53 -380 -11 -19 -18 -33 -15 -30 78 72 182 181 192 201 12 22 12 35 1 80 -23 96 -85 229 -106 229 -4 0 -10 -6 -12 -12z"/>
<path d="M14448 9197 c-25 -27 -72 -144 -88 -221 -10 -45 -9 -52 15 -85 14 -20 43 -56 65 -80 22 -25 40 -50 40 -57 0 -7 3 -15 8 -17 4 -3 7 103 7 236 0 258 -3 272 -47 224z"/>
<path d="M14668 8682 c-71 -43 -77 -50 -78 -80 0 -32 113 -262 130 -262 4 0 10 19 14 43 8 51 21 347 15 347 -2 -1 -39 -22 -81 -48z"/>
<path d="M14333 8563 c6 -120 25 -262 36 -275 11 -12 81 158 93 223 5 32 7 74 4 93 -6 29 -13 36 -62 55 -31 11 -61 21 -66 21 -8 0 -9 -37 -5 -117z"/>
<path d="M14521 8457 c-6 -16 -11 -40 -11 -55 0 -15 -9 -79 -20 -142 -24 -139 -25 -179 -4 -208 16 -24 61 -30 94 -12 33 17 73 96 66 128 -18 73 -87 279 -100 297 -14 20 -15 19 -25 -8z"/>
<path d="M11069 8890 c-54 -58 -117 -174 -149 -275 l-22 -70 72 -75 c39 -41 85 -96 102 -122 17 -27 35 -48 40 -48 5 0 19 21 31 48 21 44 22 61 22 292 0 135 -4 257 -8 273 -11 40 -35 34 -88 -23z"/>
<path d="M11335 8873 c-4 -32 -17 -130 -30 -218 -40 -276 -42 -315 -13 -315 11 0 166 123 226 178 22 21 32 40 32 60 0 40 -33 133 -72 200 -32 56 -113 152 -129 152 -4 0 -11 -26 -14 -57z"/>
<path d="M11455 8218 c-66 -27 -126 -56 -132 -65 -27 -35 -15 -78 40 -152 28 -38 79 -111 111 -162 57 -89 59 -91 71 -68 28 53 66 327 59 424 -1 17 -2 40 -3 53 0 12 -7 21 -13 21 -7 -1 -67 -24 -133 -51z"/>
<path d="M10854 8098 c9 -186 54 -426 81 -435 11 -3 102 187 137 286 12 31 21 84 22 119 1 77 -8 87 -124 131 -129 50 -124 55 -116 -101z"/>
<path d="M11190 7934 c-6 -14 -10 -32 -10 -40 0 -14 -74 -396 -86 -450 -10 -40 100 -71 177 -48 53 16 129 83 129 114 0 21 -113 348 -136 392 -16 31 -42 58 -55 58 -5 0 -14 -12 -19 -26z"/>
</g>
</svg>
